<?xml version="1.0" encoding="UTF-8" standalone="no"?>
<svg
   xmlns:dc="http://purl.org/dc/elements/1.1/"
   xmlns:cc="http://creativecommons.org/ns#"
   xmlns:rdf="http://www.w3.org/1999/02/22-rdf-syntax-ns#"
   xmlns="http://www.w3.org/2000/svg"
   version="1.1"
   id="svg2"
   xml:space="preserve"
   width="324"
   height="368"
   viewBox="0 0 162.97516 184.67172"><metadata
     id="metadata8"><rdf:RDF><cc:Work
         rdf:about=""><dc:format>image/svg+xml</dc:format><dc:type
           rdf:resource="http://purl.org/dc/dcmitype/StillImage" /></cc:Work></rdf:RDF></metadata><defs
     id="defs6"><clipPath
       clipPathUnits="userSpaceOnUse"
       id="clipPath20"><path
         d="M 0,0 H 595.22 V 842 H 0 Z"
         id="path18" /></clipPath></defs>
    <g
     id="g10"
     transform="matrix(1.3333333,0,0,-1.3333333,-90.589107,903.00973)"><g
       id="g12" /><g
       id="g14"><g
         id="g16"
         clip-path="url(#clipPath20)"><path
           d="m 128.994,543.759 v 126.145 h -0.003 c -35.27,0.01 -55.208,2.862 -55.443,2.897 l -0.284,0.042 c 0.365,-8.746 2.381,-57.697 2.381,-76.606 0,-20.763 0.877,-25.84 3.523,-30.689 2.486,-4.549 7.515,-10.232 18.125,-11.697 4.256,-0.581 7.709,-0.88 10.778,-1.144 9.178,-0.737 14.342,-1.708 20.725,-8.704 0,0 0.134,-0.136 0.198,-0.252 0,0.002 0,0.008 0,0.008 z"
           style="fill:#a39161;fill-opacity:1;fill-rule:nonzero;stroke:none"
           id="path22" /><path
           d="m 129.192,544.003 c 6.383,6.996 11.547,7.967 20.725,8.704 3.072,0.264 6.525,0.563 10.778,1.144 10.613,1.465 15.639,7.148 18.125,11.697 2.646,4.849 3.522,9.926 3.522,30.689 0,18.909 2.017,67.86 2.382,76.606 l -0.284,-0.042 c -0.235,-0.035 -20.173,-2.887 -55.446,-2.897 V 543.753 c 0.067,0.112 0.198,0.25 0.198,0.25 z"
           style="fill:#ee3224;fill-opacity:1;fill-rule:nonzero;stroke:none"
           id="path24" /><path
           d="m 129.815,541.522 1.011,1.094 c 6.426,6.844 9.666,6.989 19.285,7.869 3.07,0.263 6.569,0.567 10.884,1.154 11.347,1.526 17.103,7.845 19.791,12.841 2.95,5.444 3.788,11.039 3.788,31.757 0,10.337 0.61,29.794 1.218,46.649 0.611,16.862 1.219,31.095 1.219,31.129 l 0.058,1.35 -1.337,-0.2 -1.599,-0.238 c -0.185,-0.026 -19.971,-2.862 -55.138,-2.875 h -0.003 c -35.162,0.013 -54.95,2.849 -55.133,2.875 l -1.602,0.238 -1.337,0.2 0.06,-1.35 c 0,-0.034 0.61,-14.267 1.219,-31.129 0.607,-16.855 1.216,-36.312 1.216,-46.649 0,-20.718 0.838,-26.313 3.792,-31.757 2.684,-4.996 8.443,-11.315 19.788,-12.841 4.314,-0.587 7.819,-0.891 10.886,-1.154 9.616,-0.88 12.856,-1.025 19.283,-7.869 l 1.01,-1.094 0.821,-0.902 z m -1.018,2.481 c -6.383,6.995 -11.547,7.967 -20.725,8.704 -3.069,0.264 -6.522,0.562 -10.778,1.143 -10.611,1.465 -15.639,7.149 -18.126,11.698 -2.646,4.848 -3.522,9.926 -3.522,30.689 0,18.908 -2.017,67.859 -2.382,76.606 l 0.285,-0.043 c 0.234,-0.034 20.173,-2.886 55.443,-2.896 h 0.003 c 35.272,0.01 55.21,2.862 55.445,2.896 l 0.285,0.043 c -0.365,-8.747 -2.382,-57.698 -2.382,-76.606 0,-20.763 -0.877,-25.841 -3.522,-30.689 -2.487,-4.549 -7.512,-10.233 -18.125,-11.698 -4.254,-0.581 -7.707,-0.879 -10.779,-1.143 -9.178,-0.737 -14.342,-1.709 -20.725,-8.704 0,0 -0.131,-0.139 -0.197,-0.25 v -0.002 c -0.064,0.116 -0.198,0.252 -0.198,0.252 z"
           style="fill:#231f20;fill-opacity:1;fill-rule:nonzero;stroke:none"
           id="path26" /><path
           d="m 162.805,564.332 -4.5,26.687 18.818,-19.786 c 0,0 -12.061,27.271 -12.536,28.323 1.014,-0.318 14.182,-4.396 14.182,-4.396 0,0 -9.839,15.617 -10.177,16.152 0.514,0.3 10.353,6.18 10.353,6.18 0,0 -10.9,6.457 -11.552,6.834 0.51,0.503 12.429,11.949 12.429,11.949 0,0 -11.499,-1.141 -12.616,-1.266 0.682,1.027 11.937,18.694 11.937,18.694 l 0.606,14.011 -12.024,-5.506 -4.61,-23.298 -0.882,25.359 c 0,0 -5.53,-20.362 -5.979,-22.181 -0.485,1.664 -5.772,21.244 -5.772,21.244 0,0 -1.067,-21.08 -1.253,-25.004 -0.714,3.785 -4.047,22.25 -4.047,22.25 l -11.368,4.695 v -13.57 l 11.48,-17.227 -12.418,0.446 11.786,-11.063 -11.802,-6.609 c 0,0 10.322,-5.816 10.812,-6.097 -0.33,-0.495 -10.876,-16.682 -10.876,-16.682 0,0 13.108,4.646 14.292,5.08 -0.592,-1.262 -14.249,-30.807 -14.249,-30.807 0,0 18.616,20.705 19.857,22.037 -0.475,-1.961 -6.165,-25.599 -6.165,-25.599 l 7.66,-8.031 z"
           style="fill:#a7a9ac;fill-opacity:1;fill-rule:nonzero;stroke:none"
           id="path28" /><path
           d="m 121.175,647.451 c -0.145,0.325 -0.237,0.81 -0.206,1.638 -0.684,-0.196 -1.016,-1.385 -1.085,-1.96 0.226,0.144 0.659,0.339 1.291,0.322 z m 3.665,0.97 c -0.662,0.268 -1.657,-0.463 -2.066,-0.871 0.25,-0.005 0.72,-0.094 1.21,-0.55 0.087,0.344 0.314,0.787 0.856,1.421 z m -6.337,-4.101 c -0.351,0.385 -0.763,0.511 -1.044,0.547 -0.204,-0.533 -0.926,-1.104 -2.91,-1.104 -0.842,0 -1.631,-0.006 -2.905,0.094 -0.156,-0.58 0.087,-1.019 0.087,-1.019 1.64,-0.111 2.153,-0.124 3.157,-0.124 2.632,0 3.313,0.815 3.615,1.606 z m 6.639,0.511 c 0.066,-0.262 0.11,-0.711 -0.114,-1.266 0.346,0.101 0.848,0.124 1.68,-0.039 -0.081,0.625 -0.975,1.096 -1.566,1.305 z m 0.675,-3.611 c -0.766,0.254 -1.186,0.509 -1.441,0.752 -0.065,-0.202 -0.259,-0.561 -0.784,-1.073 0.557,-0.137 1.799,-0.253 2.225,0.321 z m -19.7,-17.342 c -0.287,0.657 -1.52,0.822 -2.098,0.813 0.241,-0.161 0.645,-0.507 0.807,-1.059 0.295,0.109 0.702,0.191 1.291,0.246 z m 18.754,-0.184 c -0.243,0.664 -1.439,0.91 -2.022,0.94 0.36,-0.276 0.502,-0.859 0.552,-1.19 0.313,0.131 0.766,0.228 1.47,0.25 z m -39.915,-0.013 c 0.114,-0.573 -0.016,-1.054 -0.121,-1.31 0.353,0.041 0.847,-0.017 1.627,-0.301 0.021,0.699 -0.968,1.359 -1.506,1.611 z m -5.927,-2.064 c -0.51,0.313 -0.714,0.716 -0.786,0.974 -0.4,-0.484 -0.891,-1.29 -0.656,-1.85 0.647,0.563 1.094,0.792 1.442,0.876 z m 20.302,-0.702 c -0.52,0.391 -0.676,0.848 -0.723,1.103 -0.325,-0.481 -0.853,-1.589 -0.467,-2.186 0.496,0.62 0.876,0.926 1.19,1.083 z m 18.38,-0.021 c -0.261,0.128 -0.676,0.398 -0.946,0.897 -0.31,-0.553 -0.662,-1.478 -0.328,-1.995 0.505,0.628 0.949,0.943 1.274,1.098 z m -12.514,0.822 c -0.264,-0.618 -0.58,-0.851 -0.798,-0.949 0.345,-0.103 0.822,-0.351 1.413,-0.874 0.232,0.544 -0.224,1.332 -0.615,1.823 z m 18.354,-0.183 c -0.212,-0.623 -0.527,-0.914 -0.748,-1.041 0.322,-0.142 0.717,-0.432 1.242,-1.034 0.339,0.575 -0.146,1.568 -0.494,2.075 z m -39.215,-0.855 c -0.392,-0.508 -0.827,-0.683 -1.091,-0.744 0.287,-0.211 0.635,-0.586 1.018,-1.317 0.442,0.456 0.27,1.467 0.073,2.061 z m 18.601,-0.721 c -0.519,-0.242 -1.001,-0.247 -1.274,-0.216 0.203,-0.312 0.444,-0.833 0.566,-1.583 0.525,0.276 0.694,1.171 0.708,1.799 z m 18.436,-0.125 c -0.514,-0.279 -0.941,-0.307 -1.19,-0.285 0.229,-0.276 0.487,-0.74 0.69,-1.495 0.473,0.314 0.543,1.16 0.5,1.78 z m -39.718,-0.23 c -0.282,-0.07 -0.751,-0.129 -1.282,0.087 0.092,-0.347 0.106,-0.849 -0.07,-1.678 0.644,0.072 1.14,1.005 1.352,1.591 z m 39.52,-24.145 c -0.145,0.325 -0.237,0.812 -0.206,1.639 -0.684,-0.198 -1.016,-1.384 -1.085,-1.96 0.226,0.143 0.659,0.338 1.291,0.321 z m 3.665,0.97 c -0.662,0.269 -1.657,-0.463 -2.066,-0.87 0.25,-0.006 0.72,-0.094 1.21,-0.551 0.087,0.344 0.314,0.789 0.856,1.421 z m -6.337,-4.1 c -0.351,0.386 -0.763,0.51 -1.044,0.547 -0.204,-0.533 -0.926,-1.104 -2.91,-1.104 -0.842,0 -1.631,-0.007 -2.905,0.094 -0.156,-0.579 0.087,-1.017 0.087,-1.017 1.64,-0.112 2.153,-0.127 3.157,-0.127 2.632,0 3.313,0.816 3.615,1.607 z m 6.639,0.51 c 0.066,-0.262 0.11,-0.711 -0.114,-1.265 0.346,0.099 0.848,0.125 1.68,-0.04 -0.081,0.626 -0.975,1.095 -1.566,1.305 z m 0.675,-3.611 c -0.766,0.254 -1.186,0.509 -1.441,0.753 -0.065,-0.204 -0.259,-0.562 -0.784,-1.074 0.557,-0.138 1.799,-0.252 2.225,0.321 z m -19.7,-17.342 c -0.287,0.656 -1.52,0.824 -2.098,0.813 0.241,-0.16 0.645,-0.506 0.81,-1.059 0.292,0.11 0.699,0.192 1.288,0.246 z m 18.754,-0.183 c -0.243,0.663 -1.439,0.909 -2.022,0.939 0.36,-0.276 0.502,-0.858 0.554,-1.191 0.311,0.132 0.764,0.23 1.468,0.252 z m -37.308,-0.013 c 0.113,-0.574 -0.018,-1.054 -0.123,-1.311 0.355,0.042 0.848,-0.016 1.629,-0.3 0.016,0.698 -0.97,1.359 -1.506,1.611 z m -5.929,-2.065 c -0.51,0.313 -0.714,0.716 -0.786,0.975 -0.4,-0.485 -0.89,-1.292 -0.656,-1.85 0.645,0.562 1.094,0.791 1.442,0.875 z m 17.697,-0.701 c -0.52,0.391 -0.676,0.848 -0.723,1.103 -0.325,-0.482 -0.853,-1.591 -0.467,-2.187 0.496,0.622 0.876,0.928 1.19,1.084 z m 18.38,-0.021 c -0.261,0.126 -0.676,0.397 -0.946,0.897 -0.31,-0.554 -0.662,-1.48 -0.328,-1.996 0.505,0.629 0.949,0.945 1.274,1.099 z m -12.514,0.822 c -0.264,-0.619 -0.58,-0.851 -0.798,-0.95 0.345,-0.103 0.822,-0.349 1.413,-0.873 0.232,0.545 -0.224,1.331 -0.615,1.823 z m 18.354,-0.183 c -0.212,-0.621 -0.527,-0.915 -0.745,-1.039 0.322,-0.145 0.714,-0.434 1.239,-1.035 0.339,0.574 -0.146,1.566 -0.494,2.074 z m -36.612,-0.856 c -0.389,-0.507 -0.825,-0.683 -1.089,-0.743 0.287,-0.213 0.636,-0.585 1.016,-1.318 0.441,0.456 0.272,1.467 0.073,2.061 z m 15.998,-0.72 c -0.519,-0.243 -1.001,-0.247 -1.274,-0.216 0.203,-0.311 0.444,-0.832 0.566,-1.583 0.525,0.276 0.694,1.17 0.708,1.799 z m 18.436,-0.126 c -0.514,-0.278 -0.941,-0.307 -1.19,-0.285 0.229,-0.274 0.487,-0.74 0.69,-1.495 0.473,0.314 0.543,1.159 0.5,1.78 z m -37.116,-0.23 c -0.278,-0.069 -0.748,-0.128 -1.279,0.088 0.093,-0.348 0.108,-0.849 -0.073,-1.678 0.648,0.072 1.143,1.005 1.352,1.59 z"
           style="fill:#ee3224;fill-opacity:1;fill-rule:nonzero;stroke:none"
           id="path30" /><path
           d="m 81.655,619.601 c 0.131,0.032 0.224,0.065 0.258,0.072 0.072,0.591 -0.111,1.677 -0.235,2.026 -0.011,0.025 0.296,0.19 0.511,0.022 0.119,-0.461 0.606,-1.482 0.824,-1.83 0.026,0.005 0.113,0.014 0.232,0.043 0.264,0.06 0.699,0.236 1.091,0.744 0.044,0.058 0.09,0.113 0.133,0.181 -0.29,0.427 -0.942,1.019 -1.3,1.262 0.026,0.204 0.128,0.305 0.299,0.38 0.305,-0.159 0.912,-0.362 1.274,-0.323 0.012,0.02 0.049,0.09 0.093,0.193 0.105,0.255 0.235,0.737 0.121,1.31 -0.014,0.07 -0.023,0.137 -0.046,0.21 -0.284,0.055 -1.224,-0.084 -1.581,-0.238 -0.003,0 -0.003,0 -0.003,0 -1.343,0.222 0.154,2.762 2.078,3.487 2.002,0.748 7.877,3.538 10.7,8.046 3.774,-0.215 6.801,-5.794 10.66,-5.794 0,0 -0.575,1.69 -0.488,2.434 0.224,0.108 0.72,0.1 0.981,-0.02 0.064,-0.862 0.461,-2.041 0.461,-2.041 1.521,-3.504 9.065,-6.001 10.355,-7.116 0.012,-0.012 0.03,-0.026 0.044,-0.039 0,0 -1.004,-0.251 -1.457,-0.613 0.033,-0.076 0.067,-0.139 0.105,-0.206 0.27,-0.5 0.685,-0.769 0.946,-0.897 0.127,-0.062 0.22,-0.096 0.229,-0.099 0.421,0.336 0.792,0.643 1.051,1.035 0.217,0.018 0.319,-0.102 0.417,-0.228 0.052,-0.479 0.323,-1.678 0.537,-2.013 0.008,-0.003 0.098,-0.029 0.238,-0.042 0.249,-0.023 0.676,0.005 1.19,0.285 0.072,0.041 0.145,0.077 0.22,0.129 -0.108,0.444 -0.722,1.312 -0.972,1.755 0.125,0.124 0.221,0.153 0.423,0.175 0.491,-0.523 1.277,-1.268 1.516,-1.496 0,0 0.101,0.016 0.243,0.097 0.221,0.126 0.536,0.418 0.748,1.041 0.027,0.073 0.056,0.14 0.076,0.224 -0.357,0.266 -1.14,0.718 -1.761,0.885 -0.072,0.188 -0.061,0.356 0.008,0.473 0.505,-0.071 1.219,-0.099 1.558,0.081 0,0.005 -0.008,0.103 -0.031,0.247 -0.05,0.332 -0.192,0.915 -0.552,1.191 -0.069,0.053 -0.147,0.097 -0.235,0.123 -0.441,-0.122 -1.276,-0.518 -1.578,-0.766 -0.305,0.178 -0.743,0.348 -1.378,0.5 -1.97,0.462 -4.895,4.263 -5.872,5.829 -0.583,0.935 -1.318,1.444 -1.884,1.711 0.969,1.084 0.796,2.534 0.255,4.146 0.172,0.064 0.567,0.129 0.915,0.102 1.23,-2.734 0.162,-3.954 0.145,-3.977 0.391,-0.307 0.853,-0.522 1.227,-1.116 1.279,2.254 0.02,4.663 -0.403,5.343 -0.804,1.174 -1.024,2.559 -0.92,3.199 0.696,0.302 1.065,0.467 2.379,0.637 0.432,0.486 0.417,1.189 0.417,1.203 -0.759,0.102 -2.828,-0.53 -4.232,-0.213 -1.381,0.314 -1.805,4.039 -0.026,4.039 1.439,0 5.121,-0.941 4.851,1.56 0.42,0.048 0.615,0.728 0.615,1.086 0,0.358 -3.104,0.91 -3.827,1.033 -0.74,0.119 -1.051,0.895 -1.77,1.062 -0.963,0.22 -3.702,0.331 -3.774,0.24 -0.497,0.563 -1.326,0.812 -1.942,0.812 -0.725,0 -0.89,-0.881 -0.879,-1.729 0.035,-0.673 0.34,-1.935 1.706,-1.945 0.026,-0.155 0.038,-0.803 -0.072,-1.08 -0.445,0.018 -1.498,0.417 -1.88,0.936 -2.62,-2.566 -2.826,-6.824 -2.826,-6.824 0,0 0.946,0.194 1.7,0.611 0.008,-0.002 0.778,-0.351 1.169,-0.916 0.076,-1.292 -0.264,-2.102 -0.743,-3.324 0.636,0.016 1.384,0.606 1.857,1.07 0.236,-0.106 0.696,-0.281 0.894,-0.473 -0.74,-1.045 -1.965,-1.506 -2.8,-1.448 -0.238,0.181 -0.697,0.591 -0.88,1.049 0.311,0.942 0.796,2.289 0.74,3.039 -0.446,-0.26 -1.264,-0.575 -2.457,-0.681 -2.832,-0.25 -8.922,-0.188 -10.793,-0.072 -3.276,0.204 -10.521,2.194 -10.521,5.414 0,2.401 1.323,3.022 3.433,3.022 2.176,0 8.878,-1.566 11.997,-1.566 4.282,0 6.644,1.516 6.644,6.528 0,4.587 0.891,6.965 2.896,6.965 2.443,0 4.201,-2.014 6.491,-2.014 1.07,0 2.573,1.254 3.429,2.1 -0.136,0.406 -0.401,0.623 -0.604,0.739 -0.475,-0.246 -1.056,-0.533 -1.421,-0.533 -2.592,0 -3.815,1.91 -6.471,1.91 -3.405,0 -4.833,-2.674 -4.918,-4.587 -0.046,-0.124 -0.243,-0.098 -0.321,-0.02 -0.224,1.933 -1.526,5.017 -4.497,5.017 -2.47,0 -3.868,-1.325 -5.635,-1.325 -1.213,0 -1.942,0.888 -2.19,1.687 -0.183,0.058 -0.732,0.196 -1.347,-0.138 0.282,-2.05 1.979,-4.012 3.571,-4.012 2.052,0 3.682,1.25 5.777,1.25 2.043,0 4.085,-2.423 4.085,-7.692 0,-2.752 -1.587,-4.521 -4.766,-4.521 -2.76,0 -5.305,0.509 -7.742,0.946 1.118,0.692 2.075,2.791 2.153,3.484 -0.153,0.039 -0.681,0.062 -1.172,-0.151 -0.046,-0.9 -1.036,-2.526 -2.312,-3.093 -1.28,0.205 -2.566,0.354 -3.888,0.372 1.169,1.204 1.532,2.7 1.509,3.38 -0.076,0.01 -0.577,0.111 -1.126,-0.248 0.003,-0.786 -0.661,-2.531 -1.831,-3.248 -1.793,-0.395 -3.229,-1.716 -3.229,-4.01 0,-2.62 2.298,-4.883 6.894,-6.322 -1.251,-0.588 -1.971,-1.504 -2.194,-2.166 0.27,-0.133 0.723,-0.224 1.184,-0.133 0.334,0.634 1.41,1.882 2.686,1.854 0.789,-0.194 1.599,-0.367 2.496,-0.517 -0.177,-2.865 -2.589,-7.883 -6.781,-7.883 -0.888,-1.104 -2.53,-6.102 -2.622,-6.59 0,-0.002 -1.544,0.086 -2.011,-0.456 0,-0.017 0.008,-0.116 0.049,-0.252 0.072,-0.258 0.276,-0.661 0.786,-0.975 0.067,-0.04 0.131,-0.083 0.209,-0.12 0.386,0.194 0.63,0.44 0.827,0.635 0.13,0.022 0.36,-0.118 0.409,-0.232 -0.153,-0.399 -0.269,-1.732 -0.328,-2.109 0.078,-0.042 0.151,-0.071 0.227,-0.101 0.531,-0.217 1.001,-0.157 1.282,-0.088 z m 27.809,29.705 c 0.157,-0.008 0.611,-0.024 1.119,-0.064 0,-0.498 0.318,-0.986 0.635,-0.986 0.226,0 0.417,0.245 0.502,0.608 0.217,-0.122 0.572,-0.306 0.761,-0.579 -0.299,-0.413 -1.02,-0.927 -1.405,-0.927 -0.918,0 -1.649,1.208 -1.612,1.948 z m 12.851,-7.24 c 0.003,0 0.732,-1.103 1.129,-1.312 0.058,0.052 0.099,0.095 0.148,0.145 0.525,0.512 0.72,0.87 0.784,1.073 0.043,0.138 0.028,0.208 0.028,0.208 -0.159,0.173 -0.789,0.613 -1.343,0.886 0.003,0.193 0.03,0.336 0.247,0.445 0.394,-0.178 1.308,-0.139 1.636,-0.147 0.035,0.069 0.058,0.134 0.084,0.201 0.224,0.554 0.18,1.004 0.114,1.265 -0.032,0.13 -0.07,0.22 -0.076,0.244 -0.424,0.036 -1.596,-0.267 -1.805,-0.375 -0.09,0.002 -0.263,0.31 -0.229,0.452 0.217,0.175 0.825,1.132 1.099,1.709 -0.049,0.053 -0.098,0.093 -0.147,0.139 -0.49,0.457 -0.96,0.545 -1.21,0.551 -0.116,0.002 -0.188,-0.009 -0.188,-0.009 -0.198,-0.569 -0.555,-1.424 -0.686,-1.952 -0.136,-0.07 -0.4,-0.028 -0.498,0.101 0.014,0.309 0.113,1.158 -0.029,1.753 -0.07,0.007 -0.131,0.004 -0.198,0.007 -0.632,0.017 -1.065,-0.177 -1.291,-0.321 -0.099,-0.064 -0.163,-0.117 -0.179,-0.134 0.147,-0.459 0.991,-2.403 0.991,-2.403 -0.162,-0.387 -0.255,-0.992 -0.182,-1.964 -2.098,-3.367 -3.389,-4.249 -5.519,-5.784 0.27,-0.435 1.28,-2.099 0.903,-4.428 5.564,3.345 6.087,9.465 6.417,9.65 z m -16.465,-7.482 c 0.667,0.29 1.358,1.001 2.04,2.401 0.22,-0.066 0.635,-0.218 0.844,-0.417 -0.792,-1.923 -1.544,-2.457 -2.051,-2.625 -0.209,0.104 -0.639,0.403 -0.833,0.641 z m 3.023,-1.65 c 0.684,0.414 1.06,1.189 1.192,3.292 0.253,0.063 0.726,0.032 0.967,-0.065 0.044,-2.488 -0.758,-3.33 -1.143,-3.653 -0.253,0.039 -0.714,0.193 -1.016,0.426 z m -5.936,-12.977 c 0.075,0.034 0.151,0.07 0.229,0.114 -0.186,0.603 -0.67,1.279 -0.85,1.612 0.081,0.16 0.195,0.237 0.432,0.255 0.299,-0.431 1.039,-0.959 1.398,-1.258 0.036,0.017 0.129,0.031 0.253,0.087 0.218,0.098 0.534,0.33 0.799,0.948 0.031,0.074 0.063,0.151 0.092,0.236 -0.389,0.382 -1.224,0.647 -1.779,0.782 -0.156,0.176 -0.008,0.409 0.052,0.464 0.302,-0.085 0.764,0 1.318,0.221 -0.012,0.075 -0.035,0.144 -0.055,0.214 -0.162,0.552 -0.566,0.898 -0.807,1.058 -0.087,0.06 -0.154,0.095 -0.174,0.108 -0.81,-0.315 -1.172,-0.511 -1.535,-0.875 -1.277,0.38 -3.314,1.474 -3.314,2.502 0,1.058 1.101,1.245 1.402,2.683 0.505,2.385 -2.327,4.817 -3.795,4.972 -0.203,-0.318 -1.265,-1.78 -2.803,-3.121 1.416,-1.026 4.245,-2.938 1.518,-5.473 0.771,-1.54 3.928,-2.227 4.331,-2.58 0,0 -0.835,-0.309 -1.07,-0.694 0.002,-0.014 0.009,-0.086 0.029,-0.194 0.047,-0.255 0.203,-0.712 0.723,-1.104 0.064,-0.046 0.121,-0.094 0.194,-0.137 0.307,0.307 0.899,1.006 1.096,1.341 0.178,0.022 0.288,-0.04 0.41,-0.149 0.052,-0.415 0.255,-1.699 0.397,-2.186 0.009,-0.004 0.098,-0.027 0.235,-0.042 0.273,-0.031 0.755,-0.026 1.274,0.216 z m -18.68,-52.349 c 0.131,0.033 0.227,0.067 0.262,0.072 0.073,0.591 -0.113,1.676 -0.236,2.025 -0.011,0.026 0.294,0.191 0.511,0.023 0.12,-0.461 0.607,-1.48 0.824,-1.83 0.026,0.004 0.114,0.015 0.233,0.042 0.263,0.06 0.699,0.236 1.088,0.744 0.046,0.059 0.093,0.113 0.136,0.181 -0.29,0.428 -0.943,1.019 -1.3,1.264 0.026,0.203 0.128,0.303 0.299,0.378 0.305,-0.159 0.908,-0.362 1.273,-0.323 0.012,0.021 0.05,0.09 0.093,0.193 0.105,0.257 0.236,0.737 0.123,1.31 -0.015,0.071 -0.024,0.138 -0.047,0.21 -0.288,0.055 -1.224,-0.084 -1.581,-0.236 -0.004,0 -0.004,0 -0.004,0 l -0.028,-0.004 c -1.126,0.642 -0.078,2.412 1.224,3.18 1.706,1.008 7.114,3.89 9.514,8.284 3.531,-0.667 6.45,-5.723 10.123,-5.723 0,0 -0.575,1.689 -0.488,2.435 0.224,0.108 0.72,0.101 0.981,-0.021 0.064,-0.861 0.461,-2.038 0.461,-2.038 1.521,-3.507 9.065,-6.003 10.355,-7.118 0.012,-0.01 0.03,-0.027 0.044,-0.04 0,0 -1.004,-0.25 -1.457,-0.613 0.033,-0.074 0.067,-0.14 0.105,-0.206 0.27,-0.499 0.685,-0.77 0.946,-0.896 0.127,-0.063 0.22,-0.095 0.229,-0.099 0.421,0.335 0.792,0.642 1.051,1.034 0.217,0.019 0.319,-0.102 0.417,-0.228 0.052,-0.478 0.323,-1.678 0.537,-2.012 0.008,-0.004 0.098,-0.031 0.238,-0.043 0.249,-0.022 0.676,0.006 1.19,0.285 0.072,0.041 0.145,0.078 0.22,0.129 -0.108,0.444 -0.722,1.313 -0.972,1.756 0.125,0.124 0.221,0.152 0.423,0.173 0.491,-0.521 1.277,-1.266 1.516,-1.495 0,0 0.101,0.017 0.246,0.099 0.218,0.125 0.533,0.419 0.745,1.04 0.027,0.075 0.056,0.141 0.076,0.225 -0.357,0.264 -1.14,0.717 -1.761,0.884 -0.072,0.186 -0.061,0.356 0.008,0.472 0.505,-0.071 1.219,-0.098 1.558,0.082 0,0.003 -0.008,0.103 -0.029,0.246 -0.052,0.332 -0.194,0.915 -0.554,1.191 -0.069,0.054 -0.147,0.098 -0.235,0.123 -0.441,-0.12 -1.276,-0.518 -1.578,-0.766 -0.305,0.179 -0.743,0.349 -1.378,0.499 -1.97,0.463 -4.895,4.264 -5.872,5.831 -0.583,0.933 -1.318,1.443 -1.884,1.713 0.969,1.082 0.796,2.53 0.255,4.143 0.172,0.065 0.567,0.131 0.915,0.101 1.23,-2.734 0.162,-3.954 0.145,-3.975 0.391,-0.309 0.853,-0.523 1.227,-1.116 1.279,2.251 0.02,4.662 -0.403,5.344 -0.804,1.175 -1.024,2.558 -0.92,3.199 0.696,0.3 1.07,0.465 2.379,0.635 0.432,0.489 0.417,1.19 0.417,1.203 -0.759,0.104 -2.828,-0.529 -4.232,-0.212 -1.381,0.315 -1.805,4.038 -0.026,4.038 1.439,0 5.121,-0.941 4.851,1.563 0.42,0.046 0.615,0.728 0.615,1.083 0,0.362 -3.104,0.911 -3.827,1.034 -0.737,0.119 -1.051,0.895 -1.77,1.062 -0.963,0.223 -3.702,0.33 -3.774,0.239 -0.497,0.564 -1.326,0.814 -1.942,0.814 -0.725,0 -0.89,-0.88 -0.882,-1.729 0.038,-0.674 0.343,-1.935 1.709,-1.946 0.026,-0.156 0.038,-0.805 -0.072,-1.083 -0.445,0.02 -1.498,0.417 -1.88,0.936 -2.615,-2.558 -2.832,-6.97 -2.826,-6.818 0,0 0.946,0.195 1.7,0.611 0.008,-0.002 0.778,-0.355 1.169,-0.919 0.076,-1.293 -0.264,-2.102 -0.743,-3.324 0.636,0.016 1.384,0.605 1.857,1.07 0.238,-0.106 0.696,-0.281 0.894,-0.474 -0.737,-1.044 -1.965,-1.506 -2.8,-1.446 -0.238,0.182 -0.697,0.593 -0.88,1.051 0.311,0.939 0.796,2.285 0.74,3.037 -0.446,-0.262 -1.264,-0.576 -2.454,-0.682 -2.686,-0.235 -7.63,-0.12 -9.412,-0.12 -2.536,0 -10.195,1.384 -10.195,5.366 0,2.401 1.27,3.135 3.379,3.135 2.182,0 7.341,-1.565 10.466,-1.565 5.278,0 6.519,2.777 6.519,6.532 0,4.588 0.897,6.965 2.899,6.965 2.44,0 4.198,-2.013 6.488,-2.013 1.073,0 2.573,1.253 3.429,2.099 -0.136,0.406 -0.401,0.624 -0.604,0.74 -0.475,-0.248 -1.056,-0.534 -1.421,-0.534 -2.592,0 -3.815,1.909 -6.471,1.909 -3.405,0 -4.833,-2.673 -4.918,-4.587 -0.046,-0.123 -0.24,-0.097 -0.318,-0.019 -0.224,1.933 -1.529,5.018 -4.5,5.018 -2.47,0 -3.866,-1.325 -5.632,-1.325 -1.213,0 -1.945,0.887 -2.193,1.685 -0.183,0.059 -0.79,0.195 -1.347,-0.136 0.282,-2.052 1.982,-4.012 3.571,-4.012 2.052,0 3.682,1.251 5.777,1.251 2.049,0 4.085,-2.425 4.085,-7.693 0,-2.754 -1.587,-4.521 -4.764,-4.521 l -0.002,-0.005 c -2.496,0.013 -4.353,0.441 -6.19,0.846 1.207,0.577 2.249,2.852 2.324,3.58 -0.15,0.039 -0.782,0.077 -1.235,-0.149 -0.052,-1 -0.914,-2.56 -2.435,-3.145 -1.154,0.227 -2.295,0.405 -3.696,0.425 1.166,1.205 1.529,2.7 1.506,3.38 -0.18,0.033 -0.746,0.033 -1.192,-0.249 0.003,-0.789 -0.662,-2.533 -1.835,-3.252 -1.79,-0.391 -3.226,-1.715 -3.226,-4.007 0,-2.599 1.315,-4.848 5.435,-6.289 -1.297,-0.585 -2.043,-1.525 -2.275,-2.197 0.272,-0.135 0.78,-0.232 1.187,-0.135 0.342,0.65 1.468,1.944 2.788,1.844 0.737,-0.19 2.187,-0.494 2.875,-0.606 -0.005,-3.92 -3.29,-7.986 -5.852,-8.366 -0.67,-1.419 -1.352,-4.531 -1.544,-5.934 -0.391,0.005 -1.612,-0.081 -2.016,-0.547 0,-0.016 0.009,-0.114 0.049,-0.25 0.072,-0.259 0.276,-0.662 0.786,-0.976 0.067,-0.041 0.131,-0.083 0.209,-0.121 0.387,0.196 0.63,0.441 0.828,0.637 0.127,0.021 0.359,-0.118 0.409,-0.232 -0.154,-0.4 -0.273,-1.733 -0.329,-2.109 0.076,-0.042 0.152,-0.072 0.227,-0.102 0.531,-0.216 1.001,-0.157 1.279,-0.087 z m 25.207,29.707 c 0.157,-0.01 0.611,-0.026 1.119,-0.066 0,-0.499 0.318,-1.013 0.632,-1.013 0.226,0 0.42,0.273 0.505,0.635 0.217,-0.123 0.572,-0.306 0.761,-0.579 -0.299,-0.413 -1.02,-0.898 -1.403,-0.898 -0.92,0 -1.651,1.179 -1.614,1.921 z m 12.849,-7.247 c -0.002,0.003 9e-4,0.004 0.002,0.005 -1e-4,2e-4 -1e-4,2e-4 -1e-4,2e-4 0.001,0 8e-4,0 1e-4,-2e-4 0.003,-0.004 0.7386,-1.1082 1.1289,-1.3118 0.058,0.051 0.099,0.097 0.148,0.144 0.525,0.512 0.72,0.87 0.784,1.073 0.043,0.139 0.028,0.207 0.028,0.207 -0.159,0.175 -0.789,0.615 -1.343,0.888 0.003,0.192 0.03,0.338 0.247,0.445 0.394,-0.178 1.308,-0.14 1.636,-0.146 0.035,0.067 0.058,0.133 0.084,0.199 0.224,0.555 0.18,1.004 0.114,1.266 -0.032,0.132 -0.07,0.22 -0.076,0.243 -0.424,0.037 -1.596,-0.267 -1.805,-0.374 -0.09,0.003 -0.263,0.309 -0.229,0.45 0.217,0.177 0.825,1.135 1.099,1.71 -0.049,0.053 -0.098,0.093 -0.147,0.14 -0.49,0.456 -0.96,0.545 -1.21,0.55 -0.113,10e-4 -0.188,-0.008 -0.188,-0.008 -0.198,-0.569 -0.555,-1.424 -0.686,-1.953 -0.136,-0.069 -0.4,-0.027 -0.498,0.102 0.014,0.309 0.113,1.158 -0.029,1.752 -0.07,0.008 -0.131,0.006 -0.198,0.008 -0.632,0.017 -1.065,-0.178 -1.291,-0.321 -0.099,-0.064 -0.163,-0.117 -0.179,-0.134 0.147,-0.459 0.991,-2.404 0.991,-2.404 -0.122,-0.29 -0.205,-0.703 -0.209,-1.3 0,-0.201 0.009,-0.42 0.027,-0.663 -2.098,-3.365 -3.389,-4.249 -5.521,-5.783 0.272,-0.437 1.282,-2.1 0.905,-4.429 5.538,3.331 6.081,9.409 6.415,9.645 z M 105.85,582.59 c 0.667,0.29 1.358,1.002 2.04,2.404 0.22,-0.068 0.635,-0.22 0.844,-0.418 -0.792,-1.925 -1.544,-2.457 -2.051,-2.626 -0.209,0.103 -0.639,0.402 -0.833,0.64 z m 3.023,-1.648 c 0.684,0.414 1.06,1.188 1.192,3.29 0.25,0.062 0.726,0.034 0.967,-0.065 0.044,-2.486 -0.758,-3.329 -1.143,-3.653 -0.253,0.04 -0.714,0.196 -1.016,0.428 z m -5.936,-12.979 c 0.075,0.034 0.151,0.071 0.229,0.114 -0.186,0.602 -0.67,1.279 -0.85,1.613 0.081,0.16 0.195,0.237 0.432,0.255 0.299,-0.433 1.039,-0.96 1.398,-1.258 0.036,0.016 0.129,0.03 0.253,0.085 0.218,0.099 0.534,0.332 0.799,0.951 0.031,0.072 0.063,0.15 0.092,0.235 -0.389,0.381 -1.224,0.647 -1.779,0.781 -0.156,0.176 -0.008,0.41 0.052,0.464 0.302,-0.084 0.764,0 1.318,0.222 -0.012,0.075 -0.032,0.142 -0.052,0.213 -0.165,0.553 -0.569,0.898 -0.81,1.059 -0.087,0.059 -0.154,0.094 -0.174,0.107 -0.81,-0.313 -1.172,-0.509 -1.535,-0.874 l -0.008,-0.004 c -1.286,0.437 -3.183,1.545 -3.183,2.52 0,1.059 1.096,1.242 1.398,2.684 0.508,2.386 -2.417,4.568 -3.328,4.82 -0.203,-0.32 -1.303,-1.932 -2.846,-3.273 0.818,-0.663 3.824,-2.634 1.097,-5.173 0.731,-1.459 3.765,-2.143 4.412,-2.513 l -0.203,-0.079 c 0,0 -0.835,-0.309 -1.07,-0.694 0.002,-0.013 0.009,-0.085 0.029,-0.194 0.047,-0.254 0.203,-0.712 0.723,-1.102 0.064,-0.047 0.121,-0.095 0.194,-0.139 0.307,0.309 0.899,1.007 1.096,1.342 0.178,0.021 0.288,-0.041 0.41,-0.149 0.052,-0.416 0.255,-1.7 0.397,-2.187 0.009,-0.004 0.098,-0.026 0.235,-0.042 0.273,-0.03 0.755,-0.026 1.274,0.216 z"
           style="fill:#0065a4;fill-opacity:1;fill-rule:nonzero;stroke:none"
           id="path32" /></g></g>
</g></svg>
